<svg width="15" height="17" viewBox="0 0 15 17" fill="none" xmlns="http://www.w3.org/2000/svg">
<path d="M4.8157 3.74462C4.8157 3.03527 5.0975 2.35496 5.59909 1.85337C6.10068 1.35178 6.78098 1.06999 7.49034 1.06999C8.1997 1.06999 8.88 1.35178 9.38159 1.85337C9.88318 2.35496 10.165 3.03527 10.165 3.74462V5.23172H11.2348V3.74462C11.2348 3.25289 11.138 2.76597 10.9498 2.31167C10.7616 1.85737 10.4858 1.44458 10.1381 1.09687C9.79039 0.749161 9.3776 0.473344 8.92329 0.285166C8.46899 0.0969876 7.98207 0.000133514 7.49034 0.000133514C6.99861 0.000133514 6.51169 0.0969876 6.05739 0.285166C5.60308 0.473344 5.19029 0.749161 4.84259 1.09687C4.49488 1.44458 4.21906 1.85737 4.03088 2.31167C3.8427 2.76597 3.74585 3.25289 3.74585 3.74462V5.23172H4.8157V3.74462Z" fill="white"/>
<path d="M11.2354 5.23181V6.89008C11.2354 7.03195 11.1791 7.16801 11.0787 7.26833C10.9784 7.36865 10.8424 7.42501 10.7005 7.42501C10.5586 7.42501 10.4226 7.36865 10.3222 7.26833C10.2219 7.16801 10.1656 7.03195 10.1656 6.89008V5.23181H4.8163V6.89008C4.8163 7.03195 4.75994 7.16801 4.65962 7.26833C4.5593 7.36865 4.42324 7.42501 4.28137 7.42501C4.1395 7.42501 4.00344 7.36865 3.90312 7.26833C3.8028 7.16801 3.74644 7.03195 3.74644 6.89008V5.23181H0.00195312V15.9303C0.00195313 16.2141 0.11467 16.4862 0.315306 16.6869C0.515943 16.8875 0.788064 17.0002 1.07181 17.0002H13.9101C14.1938 17.0002 14.4659 16.8875 14.6666 16.6869C14.8672 16.4862 14.9799 16.2141 14.9799 15.9303V5.23181H11.2354Z" fill="white"/>
</svg>
