<svg width="15" height="15" viewBox="0 0 15 15" fill="none" xmlns="http://www.w3.org/2000/svg">
<g opacity="0.3">
<path d="M5.95626 1.77734C8.08309 1.77734 9.80717 3.50146 9.80717 5.62826C9.80717 6.585 9.45822 7.46028 8.8807 8.13378L9.04119 8.29427H9.51095L12.4732 11.2565L11.5845 12.1452L8.62227 9.18294V8.71319L8.46178 8.5527C7.78829 9.13022 6.913 9.47917 5.95626 9.47917C3.82946 9.47917 2.10535 7.75508 2.10535 5.62826C2.10535 3.50146 3.82946 1.77734 5.95626 1.77734ZM5.95626 2.96225C4.48386 2.96225 3.29024 4.15586 3.29024 5.62826C3.29024 7.10067 4.48386 8.29427 5.95626 8.29427C7.42867 8.29427 8.62227 7.10067 8.62227 5.62826C8.62227 4.15586 7.42867 2.96225 5.95626 2.96225Z" fill="#A9A5AF"/>
</g>
</svg>
